HIERARCHY
ROOT SpineBase
{
  OFFSET 0.000000 0.000000 0.000000
  CHANNELS 6 Xposition Yposition Zposition Zrotation Xrotation Yrotation
  JOINT SpineMid
  {
    OFFSET -0.000000 29.102470 0.000000
    CHANNELS 3 Zrotation Xrotation Yrotation
    JOINT SpineShoulder
    {
      OFFSET -0.045050 21.575500 -0.719583
      CHANNELS 3 Zrotation Xrotation Yrotation
      JOINT Neck
      {
        OFFSET -0.017477 7.130624 -0.538925
        CHANNELS 3 Zrotation Xrotation Yrotation
        JOINT Head
        {
          OFFSET -2.395513 13.264557 -0.449120
          CHANNELS 3 Zrotation Xrotation Yrotation
          End Site
          {
            OFFSET 0 0 0
          }
        }
      }
      JOINT ShoulderLeft
      {
        OFFSET -15.409835 -4.864466 4.299502
        CHANNELS 3 Zrotation Xrotation Yrotation
        JOINT ElbowLeft
        {
          OFFSET -1.458544 -26.192779 3.059840
          CHANNELS 3 Zrotation Xrotation Yrotation
          JOINT WristLeft
          {
            OFFSET 0.942104 -21.634782 -3.426335
            CHANNELS 3 Zrotation Xrotation Yrotation
            JOINT HandLeft
            {
              OFFSET 0.338878 -4.717084 -0.389377
              CHANNELS 3 Zrotation Xrotation Yrotation
              JOINT HandTipLeft
              {
                OFFSET 1.006050 -6.630950 -1.069578
                CHANNELS 3 Zrotation Xrotation Yrotation
                End Site
                {
                  OFFSET 0 0 0
                }
              }
              JOINT ThumbLeft
              {
                OFFSET -3.199886 -0.709594 -1.438603
                CHANNELS 3 Zrotation Xrotation Yrotation
                End Site
                {
                  OFFSET 0 0 0
                }
              }
            }
          }
        }
      }
      JOINT ShoulderRight
      {
        OFFSET 13.367098 -3.917155 -9.891521
        CHANNELS 3 Zrotation Xrotation Yrotation
        JOINT ElbowRight
        {
          OFFSET 5.010468 -22.359437 -0.708029
          CHANNELS 3 Zrotation Xrotation Yrotation
          JOINT WristRight
          {
            OFFSET 0.328491 -18.995726 -5.913818
            CHANNELS 3 Zrotation Xrotation Yrotation
            JOINT HandRight
            {
              OFFSET -1.164424 -7.460596 0.256713
              CHANNELS 3 Zrotation Xrotation Yrotation
              JOINT HandTipRight
              {
                OFFSET 0.664618 -6.466617 -0.770603
                CHANNELS 3 Zrotation Xrotation Yrotation
                End Site
                {
                  OFFSET 0 0 0
                }
              }
              JOINT ThumbRight
              {
                OFFSET -2.510210 0.134535 -1.274343
                CHANNELS 3 Zrotation Xrotation Yrotation
                End Site
                {
                  OFFSET 0 0 0
                }
              }
            }
          }
        }
      }
    }
  }
  JOINT HipLeft
  {
    OFFSET -5.716472 0.671500 -0.925942
    CHANNELS 3 Zrotation Xrotation Yrotation
    JOINT KneeLeft
    {
      OFFSET 5.730468 -27.313475 7.211133
      CHANNELS 3 Zrotation Xrotation Yrotation
      JOINT AnkleLeft
      {
        OFFSET 4.610763 -31.976728 7.975111
        CHANNELS 3 Zrotation Xrotation Yrotation
        JOINT FootLeft
        {
          OFFSET -1.767314 -4.300298 -8.013378
          CHANNELS 3 Zrotation Xrotation Yrotation
          End Site
          {
            OFFSET 0 0 0
          }
        }
      }
    }
  }
  JOINT HipRight
  {
    OFFSET 5.658076 0.796411 -5.857091
    CHANNELS 3 Zrotation Xrotation Yrotation
    JOINT KneeRight
    {
      OFFSET 9.385684 -27.182369 5.713540
      CHANNELS 3 Zrotation Xrotation Yrotation
      JOINT AnkleRight
      {
        OFFSET 5.458845 -30.544029 7.748830
        CHANNELS 3 Zrotation Xrotation Yrotation
        JOINT FootRight
        {
          OFFSET -3.379734 -3.050250 -10.182650
          CHANNELS 3 Zrotation Xrotation Yrotation
          End Site
          {
            OFFSET 0 0 0
          }
        }
      }
    }
  }
}
MOTION
Frames: 16
Frame Time: 0.033333
0.871678 64.797727 333.199267 -0.000000 0.000000 23.437930 -0.000000 0.000000 -23.437930 -0.000000 0.000000 0.000000 -0.000000 0.000000 0.000000 0.000000 0.000000 0.000000 -0.000000 0.000000 0.000000 -0.000000 0.000000 0.000000 -0.000000 0.000000 0.000000 -0.000000 0.000000 0.000000 0.000000 0.000000 0.000000 0.000000 0.000000 0.000000 -0.000000 0.000000 0.000000 -0.000000 0.000000 0.000000 -0.000000 0.000000 0.000000 -0.000000 0.000000 0.000000 0.000000 0.000000 0.000000 0.000000 0.000000 0.000000 -0.000000 0.000000 -23.437930 -0.000000 0.000000 0.000000 -0.000000 0.000000 0.000000 0.000000 0.000000 0.000000 -0.000000 0.000000 -23.437930 -0.000000 0.000000 0.000000 -0.000000 0.000000 0.000000 0.000000 0.000000 0.000000
0.871349 64.803552 333.166087 0.035512 0.036769 23.367241 -0.047183 -0.019668 -23.367260 -0.000000 0.000000 0.000000 -0.000000 0.000000 0.000000 0.000000 0.000000 0.000000 -0.000000 0.000000 0.000000 -0.000000 0.000000 0.000000 1.419787 0.902156 -0.063472 0.921876 1.194453 -0.024306 0.000000 0.000000 0.000000 0.000000 0.000000 0.000000 -0.000000 0.000000 0.000000 -0.000000 0.000000 0.000000 -0.000000 0.000000 0.000000 -0.667381 -1.949634 -0.132570 0.000000 0.000000 0.000000 0.000000 0.000000 0.000000 -0.047183 -0.019668 -23.367260 -0.000000 0.000000 0.000000 -1.736405 4.280857 1.431976 0.000000 0.000000 0.000000 -0.047183 -0.019668 -23.367260 -0.000000 0.000000 0.000000 -0.000000 0.000000 0.000000 0.000000 0.000000 0.000000
0.870205 64.809149 333.138313 0.066930 0.073702 23.307569 -0.090629 -0.041206 -23.307644 -0.000000 0.000000 0.000000 -0.000000 0.000000 0.000000 0.000000 0.000000 0.000000 -0.000000 0.000000 0.000000 -0.000000 0.000000 0.000000 2.594341 1.538339 -0.138126 1.611479 2.250200 -0.060565 0.000000 0.000000 0.000000 0.000000 0.000000 0.000000 -0.000000 0.000000 0.000000 -0.000000 0.000000 0.000000 -0.203325 1.072829 -0.172549 -0.990196 -4.539500 -0.095801 0.000000 0.000000 0.000000 0.000000 0.000000 0.000000 -0.090629 -0.041206 -23.307644 0.776474 0.872387 0.313828 -3.779221 6.280308 2.225195 0.000000 0.000000 0.000000 0.352099 0.595384 -23.014638 -0.158626 -0.759004 -0.296198 -0.000000 0.000000 0.000000 0.000000 0.000000 0.000000
0.868248 64.814517 333.115946 0.094245 0.110793 23.258851 -0.130336 -0.064573 -23.259016 -0.000000 0.000000 0.000000 -0.000000 0.000000 0.000000 0.000000 0.000000 0.000000 -0.000000 0.000000 0.000000 -0.389540 -0.951663 0.017040 3.912550 2.852777 -0.293513 2.105096 3.199842 -0.100414 0.000000 0.000000 0.000000 0.000000 0.000000 0.000000 -0.000000 0.000000 0.000000 -0.000000 0.000000 0.000000 -0.186472 1.524455 -0.241930 -1.421248 -6.123651 -0.141030 0.000000 0.000000 0.000000 0.000000 0.000000 0.000000 -0.130336 -0.064573 -23.259016 1.086509 1.174282 0.429688 -4.975952 7.695716 2.965821 0.000000 0.000000 0.000000 0.549207 0.938404 -22.804710 -0.170349 -2.091359 -0.602146 -0.076898 0.902668 0.142728 0.000000 0.000000 0.000000
0.865477 64.819656 333.098986 0.117451 0.148034 23.221060 -0.166303 -0.089733 -23.221342 -0.000000 0.000000 0.000000 -0.000000 0.000000 0.000000 0.000000 0.000000 0.000000 -0.000000 0.000000 0.000000 -0.481063 -1.136689 0.021954 4.677399 3.127606 -0.389234 2.436118 4.074751 -0.137394 0.000000 0.000000 0.000000 0.000000 0.000000 0.000000 -0.000000 0.000000 0.000000 -0.000000 0.000000 0.000000 -0.090553 1.918850 -0.301251 -1.827871 -7.302460 -0.174214 0.000000 0.000000 0.000000 0.000000 0.000000 0.000000 -0.166303 -0.089733 -23.221342 1.343102 1.383134 0.518904 -5.768686 8.232672 3.491465 0.000000 0.000000 0.000000 0.760023 1.312462 -22.596098 -0.278820 -2.908703 -0.849230 -0.056485 1.257596 0.211665 0.000000 0.000000 0.000000
0.861892 64.824566 333.087434 0.136542 0.185419 23.194202 -0.198533 -0.116655 -23.194625 -0.000000 0.000000 0.000000 -0.000000 0.000000 0.000000 0.000000 0.000000 0.000000 -0.000000 0.000000 0.000000 -0.556063 -1.262491 0.027013 5.166549 3.064069 -0.462317 2.632892 4.902889 -0.165817 0.000000 0.000000 0.000000 0.000000 0.000000 0.000000 -0.000000 0.000000 0.000000 -0.000000 0.000000 0.000000 0.084447 2.255618 -0.351128 -2.218014 -8.097573 -0.190374 0.000000 0.000000 0.000000 0.000000 0.000000 0.000000 -0.198533 -0.116655 -23.194625 1.545313 1.496733 0.581831 -6.183038 7.984679 3.827005 0.000000 0.000000 0.000000 0.984189 1.717901 -22.389091 -0.412410 -3.786123 -1.120671 -0.014927 1.639547 0.290528 0.000000 0.000000 0.000000
0.867716 64.830356 333.061519 0.179935 0.242526 23.226883 -0.260998 -0.151906 -23.227610 -0.000000 0.000000 0.000000 -0.000000 0.000000 0.000000 0.000000 0.000000 0.000000 0.704621 0.619956 0.044023 -1.326620 -2.053989 -0.030395 5.539483 3.576117 -0.508249 2.409955 6.596916 0.018667 0.000000 0.000000 0.000000 0.000000 0.000000 0.000000 -0.000000 0.000000 0.000000 -0.000000 0.000000 0.000000 0.226291 3.077823 -0.479372 -2.560226 -9.691807 -0.192936 0.000000 0.000000 0.000000 0.000000 0.000000 0.000000 -0.260998 -0.151906 -23.227610 1.886907 1.364328 0.645286 -7.710181 10.457874 4.868050 0.000000 0.000000 0.000000 1.128223 2.104327 -22.261294 -0.556849 -4.674148 -1.397141 0.074788 2.062485 0.388000 0.000000 0.000000 0.000000
0.863051 64.839535 333.053645 0.193805 0.283799 23.268468 -0.290155 -0.184153 -23.269415 -0.000000 0.000000 0.000000 -0.000000 0.000000 0.000000 0.000000 0.000000 0.000000 0.814769 0.823796 0.043505 -1.489350 -2.320904 -0.032447 5.557650 3.038348 -0.533566 2.186188 7.190899 0.060681 0.000000 0.000000 0.000000 0.000000 0.000000 0.000000 -0.000000 0.000000 0.000000 -0.000000 0.000000 0.000000 0.893603 3.026369 -0.466301 -2.510360 -10.078647 -0.297366 0.000000 0.000000 0.000000 0.000000 0.000000 0.000000 -0.290155 -0.184153 -23.269415 2.026710 1.299943 0.670154 -6.073797 5.640655 3.732215 0.000000 0.000000 0.000000 1.314854 2.433270 -22.154292 -0.795489 -5.438789 -1.673010 0.224134 2.417254 0.486642 0.000000 0.000000 0.000000
0.843540 64.841378 333.070892 0.170326 0.301980 23.289488 -0.275846 -0.210029 -23.290442 -0.000000 0.000000 0.000000 -0.000000 0.000000 0.000000 0.000000 0.000000 0.000000 0.879404 0.944582 0.042944 -1.570387 -2.369492 -0.030414 5.235044 1.108316 -0.552669 1.439073 6.571221 0.031466 0.000000 0.000000 0.000000 0.000000 0.000000 0.000000 -0.000000 0.000000 0.000000 -0.000000 0.000000 0.000000 1.270515 3.101223 -0.476086 -2.582262 -9.259665 -0.208852 0.000000 0.000000 0.000000 0.000000 0.000000 0.000000 -0.275846 -0.210029 -23.290442 2.434815 1.252108 0.761014 -4.050449 -4.041494 3.352260 0.000000 0.000000 0.000000 1.444361 2.601932 -22.095641 -0.995746 -5.866274 -1.849668 0.373186 2.627484 0.558706 0.000000 0.000000 0.000000
0.826622 64.844094 333.102797 0.143508 0.320413 23.213829 -0.258187 -0.237905 -23.214767 -0.000000 0.000000 0.000000 -0.000000 0.000000 0.000000 0.000000 0.000000 0.000000 0.918813 1.042551 0.040984 -1.669656 -2.394911 -0.020564 4.696929 -1.191937 -0.582543 3.213088 9.212708 -0.284104 0.000000 0.000000 0.000000 0.000000 0.000000 0.000000 -0.000000 0.000000 0.000000 -0.000000 0.000000 0.000000 1.895531 2.542020 -0.374898 -2.574423 -7.095264 -0.151359 0.000000 0.000000 0.000000 0.000000 0.000000 0.000000 -0.258187 -0.237905 -23.214767 2.948491 0.387298 0.779157 -2.663247 -10.679321 3.385939 0.000000 0.000000 0.000000 1.878568 3.334664 -21.722116 -1.154706 -7.357442 -2.302068 0.357460 3.265440 0.668711 0.000000 0.000000 0.000000
0.781474 64.836079 333.150557 0.055629 0.300971 23.122436 -0.169352 -0.254948 -23.122959 -0.000000 0.000000 0.000000 -0.000000 0.000000 0.000000 0.000000 0.000000 0.000000 0.940215 1.043001 0.043265 -1.681660 -2.241966 -0.016768 3.427430 -1.910135 -0.501652 3.926074 8.202926 -0.428840 0.000000 0.000000 0.000000 0.000000 0.000000 0.000000 -0.000000 0.000000 0.000000 -0.000000 0.000000 0.000000 2.831297 3.064037 -0.458824 -3.637936 -5.922704 0.050168 0.000000 0.000000 0.000000 0.000000 0.000000 0.000000 -0.169352 -0.254948 -23.122959 3.006303 0.627353 0.821950 -1.662636 -15.132301 3.459614 0.000000 0.000000 0.000000 2.597560 4.360769 -21.212200 -1.323510 -9.175630 -2.859229 0.212731 3.888964 0.748237 0.000000 0.000000 0.000000
0.753234 64.836844 333.214184 0.000304 0.251319 22.987240 -0.098427 -0.231244 -22.987439 -0.000000 0.000000 0.000000 -0.000000 0.000000 0.000000 0.000000 0.000000 0.000000 0.949109 0.974771 0.048593 -1.583309 -1.936733 -0.022634 2.607366 -1.804607 -0.411274 3.354610 5.208613 -0.450270 0.000000 0.000000 0.000000 0.000000 0.000000 0.000000 -0.000000 0.000000 0.000000 -0.000000 0.000000 0.000000 3.704802 3.116296 -0.462554 -4.154058 -5.662178 0.022015 0.000000 0.000000 0.000000 0.000000 0.000000 0.000000 -0.098427 -0.231244 -22.987439 2.606802 0.994056 0.770106 -1.110226 -16.110200 3.563839 0.000000 0.000000 0.000000 3.360513 5.111626 -20.719677 -1.830520 -10.223882 -3.343540 0.236927 4.027655 0.778543 0.000000 0.000000 0.000000
0.806493 64.839073 333.238543 0.072771 0.202451 22.882410 -0.145766 -0.158222 -22.882740 -0.000000 0.000000 0.000000 -0.000000 0.000000 0.000000 0.000000 0.000000 0.000000 0.969233 0.862622 0.057974 -1.430192 -1.582043 -0.041050 1.778085 -1.987164 -0.333515 2.472897 3.058566 -0.414929 0.000000 0.000000 0.000000 0.000000 0.000000 0.000000 0.554774 -0.787531 -0.190068 -0.557436 0.785649 0.197703 4.906958 3.429140 -0.517384 -6.159089 -5.714902 0.041423 0.000000 0.000000 0.000000 0.000000 0.000000 0.000000 -0.145766 -0.158222 -22.882740 2.629492 1.256177 0.807748 -3.186648 -9.209566 3.748598 0.000000 0.000000 0.000000 2.835223 4.518478 -20.898163 -1.546141 -8.638660 -2.850047 0.260116 3.225882 0.639652 0.000000 0.000000 0.000000
0.906359 64.840703 333.260340 0.220516 0.143411 22.702821 -0.258780 -0.047191 -22.703204 -0.000000 0.000000 0.000000 -0.000000 0.000000 0.000000 0.000000 0.000000 0.000000 0.981380 0.672526 0.071521 -1.324041 -1.653737 -0.078880 1.227499 -1.704575 -0.275174 3.358842 4.943136 -0.338237 0.000000 0.000000 0.000000 0.000000 0.000000 0.000000 2.053704 -1.092675 -0.289241 -2.059561 1.081592 0.328268 4.876997 3.640058 -0.559799 -6.773382 -5.293761 0.162078 0.000000 0.000000 0.000000 0.000000 0.000000 0.000000 -0.258780 -0.047191 -22.703204 2.604459 1.326522 0.810468 -4.467319 -4.063966 3.727959 0.000000 0.000000 0.000000 2.163909 4.321094 -20.950344 -0.952063 -7.365324 -2.373701 0.145348 2.429288 0.470442 0.000000 0.000000 0.000000
1.065962 64.838182 333.270418 0.450679 0.062317 22.521077 -0.440179 0.115056 -22.520880 -0.000000 0.000000 0.000000 0.719081 0.412444 0.096148 0.000000 0.000000 0.000000 0.957021 0.396806 0.086467 -1.105090 -1.255245 -0.109558 0.459024 -1.977027 -0.213793 3.953466 4.416913 -0.479804 0.000000 0.000000 0.000000 0.000000 0.000000 0.000000 4.650593 -1.526990 -0.423856 -5.515112 0.701130 0.817319 5.119532 4.606822 -0.920585 -7.435373 -5.164164 0.317771 0.000000 0.000000 0.000000 0.000000 0.000000 0.000000 -1.316747 0.426380 -22.772505 3.562177 1.293346 1.059417 -5.428356 0.552653 3.472044 0.000000 0.000000 0.000000 1.290305 4.082054 -21.061978 -0.348018 -5.928623 -1.858716 0.104139 1.609644 0.313718 0.000000 0.000000 0.000000
1.254248 64.825333 333.294832 0.732875 -0.002839 22.263439 -0.677170 0.280282 -22.261764 -0.000000 0.000000 0.000000 0.693642 0.443398 0.100781 0.000000 0.000000 0.000000 0.976197 0.188354 0.102017 -0.978417 -1.033117 -0.142087 0.043538 -2.337652 -0.195358 3.885780 4.290914 -0.487537 0.000000 0.000000 0.000000 0.000000 0.000000 0.000000 8.279443 -2.249831 -0.594716 -10.317860 0.594342 1.570943 7.131358 3.181965 -0.944760 -6.800122 -3.290007 -0.002843 0.000000 0.000000 0.000000 0.000000 0.000000 0.000000 -1.904874 0.693188 -22.610773 4.073128 1.080525 1.164290 -4.005654 -3.825033 2.600653 0.000000 0.000000 0.000000 0.585887 4.194459 -20.949733 0.207204 -5.104135 -1.529395 -0.014694 0.997386 0.175048 0.000000 0.000000 0.000000
